$MeshFormat
4.1 0 8
$EndMeshFormat
$PhysicalNames
3
1 2 "outer"
1 3 "inner"
2 1 "ring"
$EndPhysicalNames
$Entities
2 2 1 0
1 0.25 0.2 0 0 
2 0.245 0.2 0 0 
1 0.1499999 0.1499999 -1e-07 0.2500001 0.2500001 1e-07 1 2 2 1 -1 
2 0.1549999 0.1549999 -1e-07 0.2450001 0.2450001 1e-07 2 2 3 2 2 -2 
3 0.1499999 0.1499999 -1e-07 0.2500001 0.2500001 1e-07 1 1 2 1 -2 
$EndEntities
$Nodes
5 221 1 221
0 1 0 1
1
0.25 0.2 0
0 2 0 1
2
0.245 0.2 0
1 1 0 78
3
4
5
6
7
8
9
10
11
12
13
14
15
16
17
18
19
20
21
22
23
24
25
26
27
28
29
30
31
32
33
34
35
36
37
38
39
40
41
42
43
44
45
46
47
48
49
50
51
52
53
54
55
56
57
58
59
60
61
62
63
64
65
66
67
68
69
70
71
72
73
74
75
76
77
78
79
80
0.2498419419507348 0.2039725083485857 0
0.2493687670968167 0.2079199012203607 0
0.2485834670020205 0.2118172219266453 0
0.2474910065863891 0.2156398303511114 0
0.2460982927364103 0.219363558732532 0
0.2444141306374566 0.2229648644611489 0
0.2424491681045682 0.226420978922631 0
0.2402158282635383 0.2297100514485855 0
0.2377282310079115 0.2328112874635188 0
0.2350021037284713 0.2357050799548375 0
0.232054681879611 0.2383731334346954 0
0.2289046000112425 0.240798579609958 0
0.2255717739551711 0.2429660840289831 0
0.2220772749107956 0.2448619430309606 0
0.2184431962262004 0.2464741703848694 0
0.2146925137168961 0.247792573070288 0
0.2108489404053159 0.2488088157209525 0
0.2069367765994534 0.2495164733236251 0
0.202980756258491 0.2499110718390967 0
0.1990058906167465 0.2499901164885033 0
0.195037310054597 0.2497531075261214 0
0.1911001052161225 0.2492015433989211 0
0.1872191683779763 0.2483389112729019 0
0.1834190360723967 0.2471706649861067 0
0.1797237339593503 0.2457041905677018 0
0.1761566249285747 0.2439487595411217 0
0.1727402613918667 0.2419154703065138 0
0.1694962426994738 0.2396171779730787 0
0.1664450785820482 0.237068413084931 0
0.1636060594815253 0.2342852897543207 0
0.1609971345907394 0.231285403783028 0
0.1586347983728472 0.2280877214160386 0
0.1565339862780209 0.2247124594308362 0
0.1547079803167239 0.2211809573204265 0
0.1531683250865636 0.2175155423781913 0
0.151924754783629 0.2137393885375513 0
0.1509851316597682 0.2098763698588977 0
0.1503553963149014 0.2059509095900953 0
0.1500395301386349 0.2019878257548464 0
0.1500395301386349 0.1980121742451538 0
0.1503553963149013 0.1940490904099048 0
0.1509851316597682 0.1901236301411025 0
0.151924754783629 0.1862606114624488 0
0.1531683250865636 0.1824844576218089 0
0.1547079803167238 0.1788190426795737 0
0.1565339862780208 0.175287540569164 0
0.1586347983728471 0.1719122785839616 0
0.1609971345907393 0.1687145962169721 0
0.1636060594815252 0.1657147102456795 0
0.1664450785820481 0.1629315869150692 0
0.1694962426994737 0.1603828220269214 0
0.1727402613918665 0.1580845296934863 0
0.1761566249285745 0.1560512404588784 0
0.1797237339593502 0.1542958094322983 0
0.1834190360723964 0.1528293350138933 0
0.1872191683779761 0.1516610887270982 0
0.1911001052161223 0.150798456601079 0
0.1950373100545967 0.1502468924738787 0
0.1990058906167462 0.1500098835114967 0
0.2029807562584907 0.1500889281609033 0
0.2069367765994531 0.1504835266763749 0
0.2108489404053156 0.1511911842790474 0
0.2146925137168958 0.1522074269297119 0
0.2184431962262001 0.1535258296151305 0
0.2220772749107953 0.1551380569690393 0
0.2255717739551709 0.1570339159710168 0
0.2289046000112422 0.1592014203900418 0
0.2320546818796108 0.1616268665653045 0
0.2350021037284711 0.1642949200451624 0
0.2377282310079114 0.1671887125364811 0
0.2402158282635382 0.1702899485514144 0
0.2424491681045681 0.1735790210773689 0
0.2444141306374565 0.177035135538851 0
0.2460982927364103 0.1806364412674678 0
0.2474910065863891 0.1843601696488885 0
0.2485834670020205 0.1881827780733547 0
0.2493687670968167 0.1920800987796392 0
0.2498419419507348 0.1960274916514143 0
1 2 0 70
81
82
83
84
85
86
87
88
89
90
91
92
93
94
95
96
97
98
99
100
101
102
103
104
105
106
107
108
109
110
111
112
113
114
115
116
117
118
119
120
121
122
123
124
125
126
127
128
129
130
131
132
133
134
135
136
137
138
139
140
141
142
143
144
145
146
147
148
149
150
0.2448239069933725 0.2039771047068804 0
0.2442970061400227 0.2079230831770716 0
0.2434234211535264 0.2118070527788891 0
0.2422099890208536 0.2155986161841179 0
0.2406662064936742 0.2192680992683205 0
0.2388041557634012 0.222786783351094 0
0.2366384099016609 0.2261271299586824 0
0.2341859188062478 0.2292629963498722 0
0.2314658765451941 0.2321698401183873 0
0.2284995711371621 0.2348249112704948 0
0.2253102179438351 0.2372074302745509 0
0.2219227779782358 0.2392987506890102 0
0.2183637625509559 0.2410825050961125 0
0.2146610257832053 0.2425447331991187 0
0.2108435466105476 0.2436739910805606 0
0.2069412019834386 0.2444614407664114 0
0.2029845330395796 0.2449009193952157 0
0.1990045060781065 0.2449889874508359 0
0.1950322702063128 0.2447249556813298 0
0.1910989135556517 0.2441108904932811 0
0.1872352199749566 0.2431515977793668 0
0.1834714281050859 0.2418545853057303 0
0.1798369947205589 0.2402300039535324 0
0.1763603641903565 0.2382905682745428 0
0.1730687458621674 0.2360514569825336 0
0.1699879011123507 0.2335301941592642 0
0.1671419417282374 0.2307465121047812 0
0.1645531412007026 0.2277221969054163 0
0.1622417604038998 0.2244809179281229 0
0.1602258890264497 0.2210480425755866 0
0.1585213039951004 0.2174504377519055 0
0.1571413459988841 0.2137162595926378 0
0.1560968150801372 0.2098747331048657 0
0.1553958861095263 0.20595592344189 0
0.1550440448066012 0.201990500602642 0
0.1550440448066012 0.1980094993973579 0
0.1553958861095264 0.19404407655811 0
0.1560968150801372 0.1901252668951342 0
0.1571413459988841 0.1862837404073621 0
0.1585213039951005 0.1825495622480944 0
0.1602258890264498 0.1789519574244133 0
0.1622417604038998 0.1755190820718771 0
0.1645531412007027 0.1722778030945836 0
0.1671419417282375 0.1692534878952188 0
0.1699879011123507 0.1664698058407357 0
0.1730687458621674 0.1639485430174663 0
0.1763603641903566 0.1617094317254572 0
0.1798369947205589 0.1597699960464676 0
0.1834714281050859 0.1581454146942697 0
0.1872352199749566 0.1568484022206332 0
0.1910989135556517 0.1558891095067189 0
0.1950322702063128 0.1552750443186702 0
0.1990045060781065 0.1550110125491641 0
0.2029845330395796 0.1550990806047843 0
0.2069412019834385 0.1555385592335886 0
0.2108435466105475 0.1563260089194394 0
0.2146610257832052 0.1574552668008813 0
0.2183637625509558 0.1589174949038875 0
0.2219227779782357 0.1607012493109897 0
0.225310217943835 0.162792569725449 0
0.228499571137162 0.1651750887295051 0
0.231465876545194 0.1678301598816125 0
0.2341859188062477 0.1707370036501277 0
0.2366384099016607 0.1738728700413174 0
0.2388041557634012 0.1772132166489059 0
0.2406662064936741 0.1807319007316794 0
0.2422099890208535 0.184401383815882 0
0.2434234211535264 0.1881929472211109 0
0.2442970061400226 0.1920769168229283 0
0.2448239069933725 0.1960228952931196 0
2 3 0 71
151
152
153
154
155
156
157
158
159
160
161
162
163
164
165
166
167
168
169
170
171
172
173
174
175
176
177
178
179
180
181
182
183
184
185
186
187
188
189
190
191
192
193
194
195
196
197
198
199
200
201
202
203
204
205
206
207
208
209
210
211
212
213
214
215
216
217
218
219
220
221
0.1526536597154113 0.2 0
0.1668797232001537 0.2338338890084728 0
0.1668797232001537 0.1661661109915272 0
0.2010091489293124 0.2473359580781087 0
0.2010091489293123 0.1526640419218913 0
0.2345875886027891 0.167613085081841 0
0.2345875886027892 0.2323869149181588 0
0.2473329481693382 0.202052178822281 0
0.2473051061975611 0.19797486287311 0
0.2316463378880929 0.2352168405397891 0
0.2316463378880928 0.1647831594602107 0
0.1969149620234373 0.1527606082417244 0
0.1969149620234374 0.2472393917582756 0
0.1640916802466881 0.169091265250292 0
0.1640916802466881 0.230908734749708 0
0.1528007149915289 0.2040415113934356 0
0.1528007149915289 0.1959584886065645 0
0.1698776580728647 0.2365530304135462 0
0.1698776580728648 0.1634469695864539 0
0.205219031708626 0.2469874513232141 0
0.205219031708626 0.153012548676786 0
0.237228382100254 0.1708845134939351 0
0.2372283821002541 0.2291154865060648 0
0.2468318400719215 0.2062533885281548 0
0.2468318400719214 0.1937466114718451 0
0.2282682054353298 0.1621588364578389 0
0.2282682054353299 0.2378411635421609 0
0.1927162144744382 0.1533441615050686 0
0.1927162144744382 0.2466558384949313 0
0.1616461236868091 0.1722748577749477 0
0.1616461236868091 0.2277251422250523 0
0.1533601582068466 0.2080106316455454 0
0.1533601582068466 0.1919893683544547 0
0.2093313213336727 0.1537570052733716 0
0.2093313213336728 0.2462429947266284 0
0.1723540445271555 0.2387156157333927 0
0.1723540445271554 0.1612843842666074 0
0.2395749038398144 0.174341230330666 0
0.2395749038398145 0.2256587696693339 0
0.2460063299685382 0.2103477738665872 0
0.2460063299685382 0.1896522261334128 0
0.2247674447551967 0.1598826503918489 0
0.2247674447551968 0.2401173496081511 0
0.188641105836918 0.1542503702726815 0
0.188641105836918 0.2457496297273185 0
0.1593582273059775 0.1761341214319999 0
0.1593582273059775 0.2238658785680001 0
0.1545270050852173 0.212364342484088 0
0.1545270050852174 0.187635657515912 0
0.1770930437912202 0.2412670037951585 0
0.1770930437912202 0.1587329962048415 0
0.2133637805766765 0.245176531293535 0
0.2133637805766764 0.154823468706465 0
0.2416358887553676 0.2220332758607262 0
0.2416358887553675 0.1779667241392737 0
0.2448603494592667 0.2143568717436562 0
0.2448603494592667 0.1856431282563438 0
0.2211028718926613 0.242105261983852 0
0.2211028718926613 0.1578947380161479 0
0.1846567190872255 0.2445245648214395 0
0.1846567190872255 0.1554754351785605 0
0.1574440268935632 0.1798365083696127 0
0.1574440268935632 0.2201634916303873 0
0.1558307024176295 0.1836773252945151 0
0.1558307024176295 0.2163226747054849 0
0.1807845431243024 0.1570121263096554 0
0.1807845431243024 0.2429878736903446 0
0.2172947215052358 0.1562053272852639 0
0.2172947215052359 0.2437946727147361 0
0.2434008199375087 0.1817409084747577 0
0.2434008199375087 0.2182590915252422 0
$EndNodes
$Elements
3 442 1 442
1 1 1 79
1 1 3 
2 3 4 
3 4 5 
4 5 6 
5 6 7 
6 7 8 
7 8 9 
8 9 10 
9 10 11 
10 11 12 
11 12 13 
12 13 14 
13 14 15 
14 15 16 
15 16 17 
16 17 18 
17 18 19 
18 19 20 
19 20 21 
20 21 22 
21 22 23 
22 23 24 
23 24 25 
24 25 26 
25 26 27 
26 27 28 
27 28 29 
28 29 30 
29 30 31 
30 31 32 
31 32 33 
32 33 34 
33 34 35 
34 35 36 
35 36 37 
36 37 38 
37 38 39 
38 39 40 
39 40 41 
40 41 42 
41 42 43 
42 43 44 
43 44 45 
44 45 46 
45 46 47 
46 47 48 
47 48 49 
48 49 50 
49 50 51 
50 51 52 
51 52 53 
52 53 54 
53 54 55 
54 55 56 
55 56 57 
56 57 58 
57 58 59 
58 59 60 
59 60 61 
60 61 62 
61 62 63 
62 63 64 
63 64 65 
64 65 66 
65 66 67 
66 67 68 
67 68 69 
68 69 70 
69 70 71 
70 71 72 
71 72 73 
72 73 74 
73 74 75 
74 75 76 
75 76 77 
76 77 78 
77 78 79 
78 79 80 
79 80 1 
1 2 1 71
80 2 81 
81 81 82 
82 82 83 
83 83 84 
84 84 85 
85 85 86 
86 86 87 
87 87 88 
88 88 89 
89 89 90 
90 90 91 
91 91 92 
92 92 93 
93 93 94 
94 94 95 
95 95 96 
96 96 97 
97 97 98 
98 98 99 
99 99 100 
100 100 101 
101 101 102 
102 102 103 
103 103 104 
104 104 105 
105 105 106 
106 106 107 
107 107 108 
108 108 109 
109 109 110 
110 110 111 
111 111 112 
112 112 113 
113 113 114 
114 114 115 
115 115 116 
116 116 117 
117 117 118 
118 118 119 
119 119 120 
120 120 121 
121 121 122 
122 122 123 
123 123 124 
124 124 125 
125 125 126 
126 126 127 
127 127 128 
128 128 129 
129 129 130 
130 130 131 
131 131 132 
132 132 133 
133 133 134 
134 134 135 
135 135 136 
136 136 137 
137 137 138 
138 138 139 
139 139 140 
140 140 141 
141 141 142 
142 142 143 
143 143 144 
144 144 145 
145 145 146 
146 146 147 
147 147 148 
148 148 149 
149 149 150 
150 150 2 
2 3 2 292
151 54 201 127 
152 104 200 29 
153 127 187 54 
154 29 186 104 
155 44 199 183 
156 182 198 39 
157 183 199 118 
158 113 198 182 
159 34 197 181 
160 180 196 49 
161 181 197 109 
162 122 196 180 
163 36 215 213 
164 212 214 47 
165 37 215 36 
166 47 214 46 
167 26 217 210 
168 211 216 57 
169 27 217 26 
170 57 216 56 
171 16 219 208 
172 209 218 67 
173 17 219 16 
174 67 218 66 
175 6 221 206 
176 207 220 77 
177 7 221 6 
178 77 220 76 
179 204 221 8 
180 75 220 205 
181 8 221 7 
182 76 220 75 
183 65 218 203 
184 202 219 18 
185 66 218 65 
186 18 219 17 
187 55 216 201 
188 200 217 28 
189 45 214 199 
190 198 215 38 
191 56 216 55 
192 28 217 27 
193 35 213 197 
194 196 212 48 
195 46 214 45 
196 38 215 37 
197 25 210 195 
198 194 211 58 
199 36 213 35 
200 48 212 47 
201 15 208 193 
202 192 209 68 
203 26 210 25 
204 58 211 57 
205 5 206 190 
206 191 207 78 
207 74 205 188 
208 189 204 9 
209 16 208 15 
210 68 209 67 
211 64 203 184 
212 185 202 19 
213 78 207 77 
214 6 206 5 
215 75 205 74 
216 9 204 8 
217 13 177 160 
218 161 176 70 
219 65 203 64 
220 19 202 18 
221 24 195 179 
222 178 194 59 
223 3 174 158 
224 159 175 80 
225 55 201 54 
226 29 200 28 
227 14 193 177 
228 176 192 69 
229 160 177 90 
230 141 176 161 
231 4 190 174 
232 175 191 79 
233 45 199 44 
234 39 198 38 
235 72 172 156 
236 157 173 11 
237 73 188 172 
238 173 189 10 
239 35 197 34 
240 49 196 48 
241 63 184 171 
242 170 185 20 
243 158 174 81 
244 150 175 159 
245 25 195 24 
246 59 194 58 
247 62 171 155 
248 154 170 21 
249 15 193 14 
250 69 192 68 
251 23 179 163 
252 162 178 60 
253 5 190 4 
254 79 191 78 
255 156 172 143 
256 88 173 157 
257 52 169 153 
258 152 168 31 
259 10 189 9 
260 74 188 73 
261 64 184 63 
262 20 185 19 
263 42 167 151 
264 151 166 41 
265 155 171 134 
266 97 170 154 
267 126 187 127 
268 104 186 105 
269 117 183 118 
270 113 182 114 
271 32 165 152 
272 153 164 51 
273 108 181 109 
274 122 180 123 
275 153 169 125 
276 106 168 152 
277 24 179 23 
278 60 178 59 
279 14 177 13 
280 70 176 69 
281 22 163 154 
282 155 162 61 
283 80 175 79 
284 4 174 3 
285 151 167 116 
286 115 166 151 
287 73 172 72 
288 11 173 10 
289 163 179 99 
290 132 178 162 
291 63 171 62 
292 21 170 20 
293 96 185 170 
294 171 184 135 
295 172 188 144 
296 87 189 173 
297 174 190 82 
298 149 191 175 
299 53 169 52 
300 31 168 30 
301 152 165 107 
302 124 164 153 
303 177 193 91 
304 140 192 176 
305 179 195 100 
306 131 194 178 
307 184 203 136 
308 95 202 185 
309 188 205 145 
310 86 204 189 
311 190 206 83 
312 148 207 191 
313 139 209 192 
314 193 208 92 
315 130 211 194 
316 195 210 101 
317 197 213 110 
318 121 212 196 
319 199 214 119 
320 112 215 198 
321 201 216 128 
322 103 217 200 
323 94 219 202 
324 203 218 137 
325 85 221 204 
326 205 220 146 
327 206 221 84 
328 147 220 207 
329 138 218 209 
330 208 219 93 
331 129 216 211 
332 210 217 102 
333 120 214 212 
334 213 215 111 
335 43 167 42 
336 41 166 40 
337 33 165 32 
338 51 164 50 
339 23 163 22 
340 61 162 60 
341 154 163 98 
342 133 162 155 
343 89 160 90 
344 141 161 142 
345 150 159 2 
346 2 158 81 
347 142 156 143 
348 88 157 89 
349 133 155 134 
350 97 154 98 
351 124 153 125 
352 106 152 107 
353 42 151 41 
354 115 151 116 
355 32 152 31 
356 52 153 51 
357 22 154 21 
358 62 155 61 
359 12 157 11 
360 72 156 71 
361 1 159 80 
362 3 158 1 
363 13 160 12 
364 71 161 70 
365 132 162 133 
366 98 163 99 
367 123 164 124 
368 107 165 108 
369 114 166 115 
370 116 167 117 
371 105 168 106 
372 125 169 126 
373 96 170 97 
374 134 171 135 
375 143 172 144 
376 87 173 88 
377 81 174 82 
378 149 175 150 
379 90 177 91 
380 140 176 141 
381 131 178 132 
382 99 179 100 
383 34 181 33 
384 50 180 49 
385 40 182 39 
386 44 183 43 
387 95 185 96 
388 135 184 136 
389 54 187 53 
390 30 186 29 
391 144 188 145 
392 86 189 87 
393 82 190 83 
394 148 191 149 
395 91 193 92 
396 139 192 140 
397 130 194 131 
398 100 195 101 
399 121 196 122 
400 109 197 110 
401 118 199 119 
402 112 198 113 
403 127 201 128 
404 103 200 104 
405 94 202 95 
406 136 203 137 
407 85 204 86 
408 145 205 146 
409 147 207 148 
410 83 206 84 
411 138 209 139 
412 92 208 93 
413 129 211 130 
414 101 210 102 
415 110 213 111 
416 120 212 121 
417 119 214 120 
418 111 215 112 
419 128 216 129 
420 102 217 103 
421 93 219 94 
422 137 218 138 
423 146 220 147 
424 84 221 85 
425 156 161 71 
426 12 160 157 
427 158 159 1 
428 142 161 156 
429 157 160 89 
430 2 159 158 
431 164 180 50 
432 33 181 165 
433 123 180 164 
434 165 181 108 
435 166 182 40 
436 43 183 167 
437 114 182 166 
438 167 183 117 
439 168 186 30 
440 53 187 169 
441 105 186 168 
442 169 187 126 
$EndElements
